<svg width="34" height="34" viewBox="0 0 34 34" fill="none" xmlns="http://www.w3.org/2000/svg">
<path fill-rule="evenodd" clip-rule="evenodd" d="M17.0313 5.34717L27 11.0843V22.6847L17.0313 28.4218L7 22.6866V11.0824L17.0313 5.34717ZM9 13.4017L11.2692 14.7224L16.0297 17.4627V25.5454L9 21.5263V13.4017ZM18.0297 25.5397L25 21.5282V13.3986L22.8209 14.6625L22.8185 14.6639L18.0297 17.4587V25.5397ZM17.0262 15.7287L20.3185 13.8072L17.036 11.9283L13.7622 13.8498L17.0262 15.7287ZM11.7702 12.6999L10.0012 11.6703L16.0297 8.22364V10.1999L11.7702 12.6999ZM18.0297 10.1927L22.3135 12.6447L24.0011 11.6659L18.0297 8.22931V10.1927Z" fill="#09CF7C"/>
<rect x="0.5" y="0.5" width="33" height="33" rx="16.5" stroke="#09CF7C"/>
</svg>
