<svg width="40" height="40" viewBox="0 0 40 40" fill="none" xmlns="http://www.w3.org/2000/svg">
<g opacity="0.8">
<rect width="40" height="40" rx="20" fill="#F79942"/>
<path fill-rule="evenodd" clip-rule="evenodd" d="M10 30V10H30V30H10ZM12 12H28V22.5857L24 18.5857L19 23.5857L16 20.5857L12 24.5857V12ZM12 27.4141V28H28V25.4141L24 21.4141L19 26.4141L16 23.4141L12 27.4141Z" fill="white"/>
<path fill-rule="evenodd" clip-rule="evenodd" d="M17.5 15C16.6716 15 16 15.6716 16 16.5C16 17.3284 16.6716 18 17.5 18C18.3284 18 19 17.3284 19 16.5C19 15.6716 18.3284 15 17.5 15ZM14 16.5C14 14.567 15.567 13 17.5 13C19.433 13 21 14.567 21 16.5C21 18.433 19.433 20 17.5 20C15.567 20 14 18.433 14 16.5Z" fill="white"/>
</g>
</svg>
