<svg width="40" height="40" viewBox="0 0 40 40" fill="none" xmlns="http://www.w3.org/2000/svg">
<g opacity="0.8">
<rect width="40" height="40" rx="20" fill="#EF462F"/>
<path fill-rule="evenodd" clip-rule="evenodd" d="M20.0313 8.34717L30 14.0843V25.6847L20.0313 31.4218L10 25.6866V14.0824L20.0313 8.34717ZM12 16.4017L14.2692 17.7224L19.0297 20.4627V28.5454L12 24.5263V16.4017ZM21.0297 28.5397L28 24.5282V16.3986L25.8209 17.6625L25.8185 17.6639L21.0297 20.4587V28.5397ZM20.0262 18.7287L23.3185 16.8072L20.036 14.9283L16.7622 16.8498L20.0262 18.7287ZM14.7702 15.6999L13.0012 14.6703L19.0297 11.2236V13.1999L14.7702 15.6999ZM21.0297 13.1927L25.3135 15.6447L27.0011 14.6659L21.0297 11.2293V13.1927Z" fill="white"/>
</g>
</svg>
