<svg width="34" height="34" viewBox="0 0 34 34" fill="none" xmlns="http://www.w3.org/2000/svg">
<path fill-rule="evenodd" clip-rule="evenodd" d="M26.1009 6V13.0292H19.2451V11.0292H22.9832C21.9561 10.0376 20.7247 9.34545 19.2783 8.94271C17.0947 8.36037 15.0718 8.62926 13.1481 9.75L13.1402 9.75461L13.1322 9.75907C11.1118 10.8871 9.86176 12.5037 9.32158 14.6483L9.31855 14.6604C9.10412 15.4691 9 16.2444 9 16.9885V17.9885H7V16.9885C7 16.0582 7.12999 15.1125 7.38368 14.1538C8.06347 11.4613 9.67205 9.40278 12.1492 8.01727C14.5381 6.62812 17.1087 6.29275 19.7995 7.01179L19.8091 7.01436C21.4579 7.4726 22.8914 8.2497 24.1009 9.33741V6H26.1009ZM27 15.2909V16.2909C27 17.1802 26.8684 18.0838 26.6129 18.999C25.889 21.7131 24.3196 23.795 21.9291 25.1877L21.9212 25.1923L21.9132 25.1967C19.4398 26.5777 16.8454 26.8973 14.1895 26.125C12.5157 25.676 11.0814 24.9009 9.89914 23.8065V27H7.89914V19.9708H14.8253V21.9708H10.8865C11.8979 23.0436 13.1685 23.782 14.7168 24.1957L14.7279 24.1987L14.7389 24.2019C16.8618 24.8216 18.9057 24.5829 20.9303 23.4549C22.8497 22.3342 24.0921 20.6943 24.6818 18.4785L24.6851 18.4661C24.8975 17.707 25 16.9829 25 16.2909V15.2909H27Z" fill="#F79942"/>
<rect x="0.5" y="0.5" width="33" height="33" rx="16.5" stroke="#F79942"/>
</svg>
