<svg width="40" height="40" viewBox="0 0 40 40" fill="none" xmlns="http://www.w3.org/2000/svg">
<g opacity="0.8">
<rect width="40" height="40" rx="20" fill="#9871F9"/>
<path fill-rule="evenodd" clip-rule="evenodd" d="M10 14C10 12.3431 11.3431 11 13 11H28V15H30V19H31V26H30V30H13C11.3431 30 10 28.6569 10 27V14ZM12 16.8293V27C12 27.5523 12.4477 28 13 28H28V26H25C23.3431 26 22 24.6569 22 23V22C22 20.3431 23.3431 19 25 19H28V17H13C12.6494 17 12.3128 16.9398 12 16.8293ZM12 14C12 14.5523 12.4477 15 13 15H26V13H13C12.4477 13 12 13.4477 12 14ZM25 21C24.4477 21 24 21.4477 24 22V23C24 23.5523 24.4477 24 25 24H29V21H25Z" fill="white"/>
</g>
</svg>
