<svg width="40" height="40" viewBox="0 0 40 40" fill="none" xmlns="http://www.w3.org/2000/svg">
<g opacity="0.8">
<rect width="40" height="40" rx="20" fill="#09CF7C"/>
<path fill-rule="evenodd" clip-rule="evenodd" d="M21.0002 18.6361C23.4761 18.5234 25.6055 17.9674 27.1883 16.7137C29.0246 15.259 29.9398 13.0181 30 10.0218L30.0202 9.0163L29.0146 9.00182C26.2299 8.96169 23.7245 9.5848 21.8948 11.0404C20.0315 12.5228 19.0002 14.7645 19.0002 17.6582V18.0361C18.7328 17.738 18.4401 17.4613 18.1229 17.2068C16.2962 15.741 13.7872 15.1126 10.9787 15.1729L9.97363 15.1944L10.0006 16.1994C10.0807 19.1911 10.9951 21.4297 12.825 22.8837C14.4038 24.1381 16.5258 24.6942 19.0002 24.807V29.0001H12.0814V31.0001H27.5627V29.0001H21.0002V18.6361ZM18.9452 22.8019C18.7416 20.9724 17.984 19.6596 16.8712 18.7667C15.7214 17.8441 14.0953 17.2925 12.0704 17.1873C12.2962 19.1889 13.0154 20.4805 14.0692 21.3178C15.1673 22.1903 16.7693 22.6848 18.9452 22.8019ZM23.14 12.6056C22.0236 13.4937 21.2603 14.7991 21.0554 16.631C23.2338 16.5139 24.844 16.0192 25.9465 15.1459C27.0024 14.3095 27.7212 13.0203 27.9361 11.0233C25.9216 11.1395 24.2941 11.6874 23.14 12.6056Z" fill="white"/>
</g>
</svg>
